<svg xmlns="http://www.w3.org/2000/svg" viewBox="0 0 24 24" fill="none">
  <path fill="#fff" d="M12 2C6.48 2 2 6.58 2 12.24c0 4.52 2.87 8.35 6.84 9.7.5.1.68-.22.68-.48 0-.24-.01-.88-.01-1.73-2.78.62-3.37-1.36-3.37-1.36-.46-1.19-1.11-1.51-1.11-1.51-.91-.64.07-.63.07-.63 1 .07 1.53 1.06 1.53 1.06.9 1.57 2.36 1.12 2.93.86.09-.67.35-1.12.63-1.37-2.22-.26-4.56-1.14-4.56-5.06 0-1.12.39-2.04 1.03-2.76-.1-.26-.45-1.32.1-2.75 0 0 .84-.28 2.75 1.05A9.2 9.2 0 0 1 12 6.9c.85 0 1.71.12 2.51.34 1.9-1.33 2.74-1.05 2.74-1.05.56 1.43.21 2.49.1 2.75.64.72 1.03 1.64 1.03 2.76 0 3.93-2.34 4.8-4.57 5.05.36.32.68.95.68 1.92 0 1.39-.01 2.5-.01 2.84 0 .27.18.59.69.49A10.12 10.12 0 0 0 22 12.24C22 6.58 17.52 2 12 2Z"/>
</svg>
